<svg xmlns="http://www.w3.org/2000/svg" viewBox="0 0 4334.9 3954.23" shape-rendering="geometricPrecision" text-rendering="geometricPrecision" image-rendering="optimizeQuality" fill-rule="evenodd" clip-rule="evenodd"><defs><style>.prefix__fil4{fill:#427d2a}</style></defs><g id="prefix__Layer_x0020_1"><path d="M141.61 1949.61h732.86c77.89 0 141.6 63.8 141.6 141.57v14.5l102.03-.12c539.59-1.86 678.04-2.25 1220.91 338.45h447.59l5.13.33c69.42 4.71 129.57 29.34 173.85 65.76 34.89 28.67 60.26 64.94 73.03 104.94 13.03 40.83 12.97 85.18-3.13 129.02-17.26 46.93-53.02 93.14-110.91 133.04-86.75 63.51-186.55 93.44-293.38 104.76-102.81 10.87-212.07 4.33-322.45-5.52-35.1-1.71-57.59 12.16-67.35 30.86-3.87 7.45-5.97 15.8-6.15 24.11-.18 8.5 1.53 17.06 5.13 24.87 9.25 20.02 32.37 35.82 70.38 35.97l2.8.12c28.58 2.1 59.81-.99 90.19-3.94 24.14-2.37 47.95-4.71 71.91-4.74 131.43-.09 250.81-12.58 352.72-50.5 98.12-36.52 181.05-97.41 244.1-194.9l67.59-157.79c3.85-9.06 10.72-15.94 18.92-19.99l682.39-338.33 5.17-2.11c116.92-38.58 224.14-26.78 308.03 16.04 55.04 28.04 100.11 69.6 131.39 119.17 31.41 49.66 48.98 107.58 48.94 168.14-.03 85.64-35.1 176.17-115.59 255.67l-4.54 3.85c-247.59 180.21-499.02 344.81-753.97 494.55-254.23 149.32-511.16 283.44-770.52 403.1-388.9 235.61-777.67 227.65-1166.23.06l-507.98-261.86c-.09 77.86-63.86 141.39-141.6 141.39H141.61C63.84 3660.08 0 3596.34 0 3518.51V2091.18c0-77.74 63.81-141.57 141.61-141.57z" fill="#2d2222" fill-rule="nonzero"/><path d="M1025.71 2185v1249.49l536.53 276.69c362.86 213.21 725.69 220.93 1088.22.78l4.81-2.64c258.4-119.15 513.68-252.31 765.47-400.22 250.87-147.36 499.39-310.04 745.24-488.85 62.45-62.66 89.78-132.14 89.78-196.94 0-45.15-13.21-88.57-36.81-125.92-23.66-37.51-58.1-69.12-100.35-90.65-65.82-33.57-150.94-42.61-245.25-12.1l-666.15 330.28-63.02 147.1-3.1 5.73c-73.5 115.18-170.33 186.79-285.09 229.49-111.94 41.67-240.3 55.37-380.34 55.49-19.21 0-41.55 2.22-64.16 4.44-34.35 3.33-69.48 6.79-103.83 4.11-72.18-1.23-118.45-36.84-139.29-81.91-8.65-18.76-12.79-39.36-12.28-59.78.48-20.36 5.62-40.71 15.16-59.03 22.94-44.02 70.65-76.86 141.21-73.38l1.57.15c106.5 9.55 211.71 15.97 309.11 5.67 93.77-9.9 180.6-35.67 254.71-89.95l1.08-.75c43.75-29.97 70.14-63.06 82.09-95.58 9.79-26.66 9.94-53.41 2.16-77.79-8.05-25.25-24.68-48.64-47.86-67.71-32.01-26.3-76.48-44.2-128.72-47.77h-458.79c-7.24-.12-14.54-2.07-21.11-6.22-531.82-334.78-663.96-334.3-1188.6-332.53l-92.39.3z" fill="#dba47b" fill-rule="nonzero"/><path d="M141.61 2009.99h732.86c44.68 0 81.22 36.54 81.22 81.19v1427.33c0 44.68-36.54 81.19-81.22 81.19H141.61c-44.68 0-81.22-36.51-81.22-81.19V2091.18c0-44.65 36.54-81.19 81.22-81.19z" fill="#43494c"/><path d="M955.69 2641.91v876.58c0 44.69-36.55 81.23-81.23 81.23H141.62c-44.68 0-81.23-36.54-81.23-81.23v-182.33l895.3-694.25z" fill="#34393e"/><path class="prefix__fil4" d="M1383.69 0l2576.6 690.4-383.1 1429.76-182.45-48 293.85-1045.77 3.84-12.39c24.94-92.65-30-188-122.64-212.94L1330.1 199.99 1383.69 0z"/><path class="prefix__fil4" d="M978.23 254.88l2576.64 690.41-358.4 1337.58-2576.64-690.4z"/><path d="M3080.46 1041.04c-28.03 99.13 35.55 212.63 138.42 241.52l-141.8 529.23c-108.35-30.5-221.83 33.08-254.83 151.28l-1714.24-459.33c30.49-108.35-33.1-221.86-135.96-250.74l141.81-529.23c108.79 30.48 222.33-33.02 252.84-141.93l1713.76 459.2z" fill="#87cc71"/><path class="prefix__fil4" d="M1717.37 925.06c193.8-207.63 519.17-218.84 726.8-25.04 207.63 193.78 218.83 519.17 25.03 726.8-193.77 207.63-519.16 218.83-726.79 25.03-207.63-193.79-218.84-519.16-25.04-726.79z"/><path d="M2060.16 1234.6l26.63 7.14c26.09 6.99 46.53 7.79 61.24 2.38 14.76-5.3 24.62-17.37 29.62-36.01 4.94-18.45 2.11-33.34-8.43-44.54-10.63-11.23-29.22-20.4-55.86-27.54l-24.99-6.7-28.21 105.27zm-17.98 67.09l-40.04 149.45-82.55-22.11 104.35-389.45 113.46 30.4c52.9 14.18 89.41 34.29 109.61 60.36 20.29 26.09 25.08 58.74 14.59 97.92-6.14 22.91-17.87 41.6-35.31 56.12-17.32 14.46-38.89 23.68-64.68 27.58 35.09 103.24 58.09 170.1 68.97 200.39l-91.63-24.55-52.86-174.34-43.91-11.77z" fill="#fff" fill-rule="nonzero"/></g></svg>